<svg width="17" height="18" viewBox="0 0 17 18" fill="none" xmlns="http://www.w3.org/2000/svg">
<path d="M1.05882 0C0.778006 0 0.50869 0.111554 0.310122 0.310122C0.111554 0.50869 0 0.778006 0 1.05882C0 1.33964 0.111554 1.60896 0.310122 1.80752C0.50869 2.00609 0.778006 2.11765 1.05882 2.11765H2.35059L2.67353 3.41153C2.67674 3.42643 2.68027 3.44125 2.68412 3.456L4.122 9.20541L3.17647 10.1499C1.84235 11.484 2.78682 13.7647 4.67365 13.7647H13.7647C14.0455 13.7647 14.3148 13.6532 14.5134 13.4546C14.712 13.256 14.8235 12.9867 14.8235 12.7059C14.8235 12.4251 14.712 12.1558 14.5134 11.9572C14.3148 11.7586 14.0455 11.6471 13.7647 11.6471H4.67365L5.73247 10.5882H12.7059C12.9025 10.5881 13.0951 10.5333 13.2623 10.4299C13.4295 10.3265 13.5646 10.1786 13.6525 10.0027L16.8289 3.64977C16.9096 3.48838 16.9477 3.30906 16.9395 3.12883C16.9314 2.9486 16.8774 2.77343 16.7826 2.61995C16.6877 2.46646 16.5553 2.33976 16.3977 2.25185C16.2402 2.16394 16.0628 2.11774 15.8824 2.11765H4.53176L4.20353 0.801529C4.14617 0.572562 4.01395 0.369327 3.82787 0.224106C3.64178 0.0788846 3.41251 6.20517e-06 3.17647 0H1.05882ZM14.8235 16.4118C14.8235 16.833 14.6562 17.237 14.3583 17.5348C14.0605 17.8327 13.6565 18 13.2353 18C12.8141 18 12.4101 17.8327 12.1122 17.5348C11.8144 17.237 11.6471 16.833 11.6471 16.4118C11.6471 15.9905 11.8144 15.5866 12.1122 15.2887C12.4101 14.9909 12.8141 14.8235 13.2353 14.8235C13.6565 14.8235 14.0605 14.9909 14.3583 15.2887C14.6562 15.5866 14.8235 15.9905 14.8235 16.4118ZM4.76471 18C5.18593 18 5.58991 17.8327 5.88776 17.5348C6.18561 17.237 6.35294 16.833 6.35294 16.4118C6.35294 15.9905 6.18561 15.5866 5.88776 15.2887C5.58991 14.9909 5.18593 14.8235 4.76471 14.8235C4.34348 14.8235 3.93951 14.9909 3.64165 15.2887C3.3438 15.5866 3.17647 15.9905 3.17647 16.4118C3.17647 16.833 3.3438 17.237 3.64165 17.5348C3.93951 17.8327 4.34348 18 4.76471 18Z" fill="#0D0E10"/>
</svg>
