<svg width="18" height="18" viewBox="0 0 18 18" fill="none" xmlns="http://www.w3.org/2000/svg">
<path d="M17.3077 14.2743C17.3077 14.5743 17.241 14.8827 17.0993 15.1827C16.9577 15.4827 16.7744 15.766 16.5327 16.0327C16.1244 16.4827 15.6743 16.8077 15.166 17.016C14.666 17.2243 14.1244 17.3327 13.541 17.3327C12.691 17.3327 11.7827 17.1327 10.8243 16.7243C9.86602 16.316 8.90768 15.766 7.95768 15.0743C6.99935 14.3743 6.09102 13.5993 5.22435 12.741C4.36602 11.8743 3.59102 10.966 2.89935 10.016C2.21602 9.06602 1.66602 8.11602 1.26602 7.17435C0.866016 6.22435 0.666016 5.31602 0.666016 4.44935C0.666016 3.88268 0.766016 3.34102 0.966016 2.84102C1.16602 2.33268 1.48268 1.86602 1.92435 1.44935C2.45768 0.924349 3.04102 0.666016 3.65768 0.666016C3.89102 0.666016 4.12435 0.716016 4.33268 0.816016C4.54935 0.916016 4.74102 1.06602 4.89102 1.28268L6.82435 4.00768C6.97435 4.21602 7.08268 4.40768 7.15768 4.59102C7.23268 4.76602 7.27435 4.94102 7.27435 5.09935C7.27435 5.29935 7.21602 5.49935 7.09935 5.69102C6.99102 5.88268 6.83268 6.08268 6.63268 6.28268L5.99935 6.94102C5.90768 7.03268 5.86602 7.14102 5.86602 7.27435C5.86602 7.34102 5.87435 7.39935 5.89102 7.46602C5.91602 7.53268 5.94102 7.58268 5.95768 7.63268C6.10768 7.90768 6.36602 8.26602 6.73268 8.69935C7.10768 9.13268 7.50768 9.57435 7.94102 10.016C8.39102 10.4577 8.82435 10.866 9.26602 11.241C9.69935 11.6077 10.0577 11.8577 10.341 12.0077C10.3827 12.0243 10.4327 12.0493 10.491 12.0743C10.5577 12.0993 10.6243 12.1077 10.6993 12.1077C10.841 12.1077 10.9493 12.0577 11.041 11.966L11.6743 11.341C11.8827 11.1327 12.0827 10.9743 12.2744 10.8743C12.466 10.7577 12.6577 10.6993 12.866 10.6993C13.0243 10.6993 13.191 10.7327 13.3743 10.8077C13.5577 10.8827 13.7494 10.991 13.9577 11.1327L16.716 13.091C16.9327 13.241 17.0827 13.416 17.1743 13.6243C17.2577 13.8327 17.3077 14.041 17.3077 14.2743Z" fill="#0D0E10"/>
</svg>
