<svg width="40" height="40" viewBox="0 0 40 40" fill="none" xmlns="http://www.w3.org/2000/svg">
<path d="M6.64614 22.0758C6.71506 22.1275 6.76789 22.1977 6.79849 22.2782C6.82908 22.3587 6.83619 22.4463 6.81897 22.5307L6.63477 23.3448C6.59407 23.526 6.62702 23.716 6.72639 23.873C6.82576 24.0299 6.9834 24.1409 7.16464 24.1817L7.89462 24.3409C7.99633 24.3423 8.09462 24.3778 8.17377 24.4417C8.25292 24.5056 8.30837 24.5942 8.33125 24.6933C8.35149 24.7927 8.39363 24.8863 8.4546 24.9674C8.51558 25.0484 8.59385 25.1148 8.68373 25.1618C8.77645 25.2111 8.879 25.2391 8.98391 25.2437C9.03144 24.6909 9.29541 24.1793 9.71835 23.8203C10.1413 23.4612 10.689 23.2838 11.2421 23.3266L11.615 23.3539L11.5332 22.6717C11.4749 22.1427 11.6178 21.6112 11.9333 21.1828C12.2489 20.7543 12.7141 20.4602 13.2365 20.3589L16.6362 19.7131L27.3063 9.05664L17.1752 15.5583C17.0983 15.6083 17.0076 15.633 16.916 15.6288L13.8141 15.5446C13.5676 15.5383 13.3278 15.6255 13.143 15.7888C12.9582 15.9521 12.8421 16.1793 12.818 16.4247L12.7157 17.4844C12.7091 17.5509 12.688 17.6151 12.6538 17.6725C12.6196 17.7299 12.5732 17.779 12.5179 17.8165C12.4622 17.8541 12.3988 17.8789 12.3323 17.8892C12.2659 17.8994 12.198 17.8948 12.1335 17.8756L11.3694 17.6482C11.2337 17.6078 11.0907 17.5975 10.9505 17.6179C10.8104 17.6383 10.6763 17.6891 10.5577 17.7665C10.4391 17.844 10.3388 17.9464 10.2638 18.0665C10.1888 18.1867 10.1408 18.3217 10.1232 18.4623L10.0323 19.215C10.0244 19.2793 10.0029 19.3412 9.96913 19.3965C9.9354 19.4518 9.89025 19.4992 9.8367 19.5357C9.78303 19.5721 9.72218 19.5966 9.65825 19.6076C9.59432 19.6186 9.52877 19.6158 9.46602 19.5994L8.66781 19.3924C8.52827 19.3566 8.38251 19.3521 8.24103 19.3793C8.09954 19.4065 7.96584 19.4647 7.84951 19.5497C7.73319 19.6347 7.63715 19.7444 7.56827 19.871C7.4994 19.9975 7.45941 20.1377 7.45117 20.2816C7.44554 20.3599 7.41975 20.4353 7.37631 20.5007C7.33288 20.566 7.27327 20.619 7.20329 20.6545L6.74848 20.8819C6.63936 20.9352 6.54643 21.0166 6.47927 21.1177C6.41211 21.2188 6.37315 21.3361 6.36643 21.4573C6.355 21.5758 6.37481 21.6953 6.42389 21.8038C6.47296 21.9124 6.54958 22.0061 6.64614 22.0758Z" fill="black"/>
<path d="M33.3046 7.45119L32.5496 6.69619C32.3363 6.48303 32.0472 6.36328 31.7457 6.36328C31.4442 6.36328 31.155 6.48303 30.9418 6.69619L17.1789 20.4568C17.1169 20.5197 17.0379 20.5631 16.9515 20.5818L13.4153 21.2527C13.1163 21.3108 12.8502 21.4796 12.6701 21.7254C12.4901 21.9712 12.4095 22.2758 12.4443 22.5785L12.5921 23.8065C12.6 23.873 12.5931 23.9405 12.5718 24.004C12.5506 24.0676 12.5156 24.1257 12.4693 24.1741C12.423 24.2226 12.3666 24.2602 12.3041 24.2843C12.2416 24.3084 12.1745 24.3184 12.1077 24.3136L11.1844 24.2431C11.0099 24.2301 10.8346 24.2553 10.6709 24.3171C10.5071 24.3788 10.3588 24.4754 10.2362 24.6004C10.1137 24.7253 10.0199 24.8755 9.96131 25.0404C9.90278 25.2053 9.88093 25.381 9.89729 25.5553L9.97916 26.4331C9.98494 26.4993 9.97613 26.566 9.95334 26.6285C9.93055 26.691 9.89434 26.7477 9.84726 26.7947C9.80264 26.8416 9.74852 26.8784 9.68852 26.9027C9.62851 26.9271 9.56401 26.9383 9.49932 26.9357L8.5442 26.8993C8.36614 26.8923 8.18874 26.9249 8.02483 26.9949C7.86093 27.0648 7.71461 27.1703 7.59644 27.3037C7.47828 27.4371 7.39123 27.595 7.34158 27.7662C7.29194 27.9373 7.28093 28.1174 7.30937 28.2933C7.32173 28.3718 7.31334 28.4521 7.28501 28.5263C7.25668 28.6005 7.20941 28.666 7.14791 28.7163L6.69309 29.0961C6.57732 29.1912 6.48771 29.3143 6.43269 29.4537C6.37768 29.5931 6.35908 29.7443 6.37865 29.8928C6.39822 30.0414 6.45531 30.1826 6.54454 30.303C6.63377 30.4234 6.7522 30.5191 6.88866 30.581C6.96881 30.6171 7.03681 30.6755 7.08443 30.7494C7.13205 30.8233 7.15726 30.9093 7.157 30.9972V31.9682C7.15612 32.2032 7.24855 32.429 7.41398 32.5959C7.49552 32.679 7.59286 32.7449 7.70025 32.7898C7.80765 32.8347 7.92294 32.8577 8.03935 32.8574H8.91488C8.94967 32.8541 8.9847 32.8541 9.01949 32.8574C9.1046 32.8564 9.18813 32.8805 9.25969 32.9266C9.33125 32.9727 9.38769 33.0388 9.422 33.1167C9.48381 33.2536 9.57955 33.3725 9.70016 33.462C9.82076 33.5516 9.96224 33.6089 10.1112 33.6285C10.2601 33.6481 10.4116 33.6293 10.5513 33.574C10.6909 33.5186 10.8142 33.4285 10.9093 33.3122L11.2868 32.8574C11.337 32.7959 11.4025 32.7486 11.4767 32.7203C11.5509 32.692 11.6313 32.6836 11.7097 32.6959C11.8855 32.7243 12.0653 32.7134 12.2363 32.6639C12.4073 32.6143 12.5651 32.5275 12.6985 32.4096C12.8318 32.2917 12.9373 32.1457 13.0074 31.982C13.0775 31.8184 13.1104 31.6413 13.1038 31.4634L13.0674 30.506C13.0655 30.4414 13.077 30.3771 13.1013 30.3172C13.1256 30.2573 13.162 30.2031 13.2084 30.1581C13.2558 30.1136 13.3122 30.0799 13.3738 30.0591C13.4354 30.0383 13.5007 30.0309 13.5654 30.0375L14.4409 30.1194C14.6151 30.1354 14.7906 30.1132 14.9554 30.0546C15.1201 29.9959 15.2701 29.902 15.395 29.7796C15.5198 29.6571 15.6165 29.5089 15.6784 29.3454C15.7402 29.1818 15.7657 29.0067 15.7531 28.8323L15.6826 27.909C15.6774 27.8417 15.6871 27.7742 15.7112 27.7112C15.7353 27.6482 15.7731 27.5914 15.8219 27.5448C15.8706 27.4982 15.9291 27.4631 15.9931 27.4419C16.0571 27.4207 16.1251 27.414 16.192 27.4223L17.4177 27.5701C17.7228 27.6003 18.028 27.5136 18.2715 27.3274C18.5151 27.1413 18.6789 26.8696 18.7299 26.5673L19.3916 23.0765C19.411 22.9899 19.4553 22.9109 19.519 22.8491L33.3046 9.05671C33.4105 8.95108 33.4945 8.82561 33.5518 8.68747C33.6091 8.54933 33.6386 8.40124 33.6386 8.25168C33.6386 8.10212 33.6091 7.95402 33.5518 7.81588C33.4945 7.67774 33.4105 7.55227 33.3046 7.44665V7.45119ZM28.8928 11.5719L9.48113 30.9836C9.41632 31.0458 9.32994 31.0806 9.24008 31.0806C9.15021 31.0806 9.06383 31.0458 8.99902 30.9836C8.93569 30.9193 8.90019 30.8327 8.90019 30.7425C8.90019 30.6523 8.93569 30.5657 8.99902 30.5014L28.4107 11.0897C28.4747 11.0259 28.5614 10.99 28.6518 10.99C28.7422 10.99 28.8289 11.0259 28.8928 11.0897C28.9567 11.1537 28.9926 11.2404 28.9926 11.3308C28.9926 11.4212 28.9567 11.5079 28.8928 11.5719Z" fill="black"/>
</svg>
