<svg width="40" height="40" viewBox="0 0 40 40" fill="none" xmlns="http://www.w3.org/2000/svg">
<path d="M26.83 13.7562C25.3053 14.2165 23.5504 14.533 21.7092 14.6193C21.5941 14.6193 21.479 14.6193 21.3352 14.648C21.2201 14.648 21.0763 14.648 20.9324 14.648H20.9037C20.8461 14.648 20.7886 14.648 20.731 14.648C20.6735 14.648 20.6447 14.648 20.5872 14.648C20.5009 14.648 20.4146 14.648 20.3283 14.648C20.242 14.648 20.1557 14.648 20.0694 14.648C20.0118 14.648 19.9831 14.648 19.9255 14.648C19.868 14.648 19.8104 14.648 19.7529 14.648H19.7241C19.5803 14.648 19.4652 14.648 19.3214 14.648C19.2063 14.648 19.0625 14.648 18.9474 14.6193C17.135 14.533 15.3513 14.2165 13.8266 13.7562C12.0717 13.2096 10.8058 12.4041 10.2305 11.541L10.288 11.8862L11.0648 16.0577C11.3812 16.4317 11.7552 16.7769 12.158 17.0934C13.1361 17.8414 14.3732 18.4743 15.8116 18.877C16.9623 21.2936 17.3076 23.7965 16.5596 28.2269C16.387 28.6584 16.3007 29.1475 16.3007 29.6365C16.3007 31.8517 18.0843 33.6354 20.2995 33.6354C22.5147 33.6354 24.2984 31.8517 24.2984 29.6365C24.2984 29.1475 24.2121 28.6584 24.0394 28.2269C23.2915 23.7677 23.6367 21.2648 24.7874 18.877C26.2259 18.4455 27.4629 17.8414 28.4411 17.0934C28.8438 16.7769 29.2178 16.4317 29.5343 16.0577L30.311 11.8862L30.3686 11.541C29.8507 12.4328 28.5849 13.2096 26.83 13.7562ZM22.7449 29.3488C22.0544 29.8667 21.2201 30.1256 20.3283 30.1256C19.4652 30.1256 18.6309 29.8667 17.9117 29.3488C17.8829 29.3201 17.8542 29.2625 17.8829 29.2338C17.9117 29.205 17.9692 29.1762 17.998 29.205C18.6597 29.6941 19.4652 29.953 20.2995 29.953C21.1338 29.953 21.9393 29.6941 22.601 29.205C22.6298 29.1762 22.6873 29.1762 22.7161 29.2338C22.7736 29.2913 22.7736 29.3201 22.7449 29.3488ZM22.8024 19.4524C21.9969 19.5675 21.1626 19.625 20.3283 19.625C19.4652 19.625 18.6309 19.5675 17.8254 19.4236C17.7679 19.4236 17.7391 19.3661 17.7679 19.3373C17.7966 19.3086 17.8254 19.251 17.8542 19.2798C18.6597 19.3949 19.494 19.4524 20.357 19.4812C21.1913 19.4812 21.9969 19.4236 22.8024 19.3086C22.8599 19.3086 22.8887 19.3373 22.8887 19.3661C22.8599 19.3949 22.8312 19.4236 22.8024 19.4524Z" fill="#0D0E10"/>
<path d="M20.328 6.36328C14.6318 6.36328 10 8.20448 10 10.4484L10.1151 11.0526C10.1438 11.1677 10.2014 11.2827 10.2589 11.369C10.7768 12.2896 12.0713 13.0664 13.855 13.6418C15.351 14.1021 17.0771 14.4185 18.9471 14.5048C19.0621 14.5048 19.1772 14.5048 19.3211 14.5336C19.4649 14.5336 19.58 14.5336 19.7238 14.5336H19.7526C19.8101 14.5336 19.8677 14.5336 19.9252 14.5336C19.9827 14.5336 20.0115 14.5336 20.069 14.5336C20.1554 14.5336 20.2417 14.5336 20.328 14.5336C20.4143 14.5336 20.5006 14.5336 20.5869 14.5336C20.6444 14.5336 20.6732 14.5336 20.7307 14.5336C20.7883 14.5336 20.8458 14.5336 20.9033 14.5336H20.9321C21.0759 14.5336 21.191 14.5336 21.3349 14.5336C21.4499 14.5336 21.565 14.5336 21.7089 14.5048C23.5788 14.3897 25.3049 14.1021 26.8009 13.6418C28.5846 13.0664 29.8792 12.2896 30.397 11.369C30.4545 11.254 30.5121 11.1677 30.5409 11.0526L30.6559 10.4484C30.6559 8.20448 26.0242 6.36328 20.328 6.36328ZM20.328 14.1596C15.3797 14.1596 11.3809 12.5773 11.3809 10.621C11.3809 10.5635 11.3809 10.506 11.3809 10.4484C11.5823 8.57847 15.5236 7.0825 20.328 7.0825C25.1323 7.0825 29.0736 8.57847 29.275 10.4772C29.275 10.5347 29.275 10.5923 29.275 10.6498C29.275 12.5773 25.2762 14.1596 20.328 14.1596Z" fill="#0D0E10"/>
<path d="M17.0486 13.5258C17.0486 13.3244 17.4514 13.1518 17.9405 13.1518C18.4295 13.1518 18.8323 13.3244 18.8323 13.5258C18.8323 13.7272 18.4295 13.8998 17.9405 13.8998C17.9117 13.8998 17.8829 13.8998 17.8542 13.8998C18.6309 13.9861 19.4652 14.0436 20.2995 14.0436C21.1338 14.0436 21.9681 13.9861 22.7448 13.8998C22.7161 13.8998 22.6873 13.8998 22.6585 13.8998C22.1695 13.8998 21.7667 13.7272 21.7667 13.5258C21.7667 13.3244 22.1695 13.1518 22.6585 13.1518C23.1476 13.1518 23.5504 13.3244 23.5504 13.5258C23.5504 13.6696 23.349 13.7847 23.0613 13.871C24.1833 13.7272 25.2477 13.497 26.1683 13.1806C26.5423 12.9504 26.7437 12.7203 26.7149 12.5189C26.6862 12.1449 25.9957 11.7421 24.845 11.4544C23.6367 11.1668 22.0256 10.9941 20.3283 10.9941C18.6309 10.9941 17.0199 11.1668 15.8116 11.4544C14.6608 11.7421 13.9704 12.1161 13.9416 12.5189C13.9128 12.749 14.1718 13.0079 14.6608 13.2669C15.4951 13.5258 16.4733 13.7559 17.4802 13.871C17.25 13.8135 17.0486 13.6696 17.0486 13.5258ZM20.2707 12.26C20.2995 12.26 20.2995 12.26 20.3283 12.26C20.357 12.26 20.357 12.26 20.3858 12.26C20.8749 12.26 21.2776 12.4326 21.2776 12.634C21.2776 12.8353 20.8749 13.0079 20.3858 13.0079C20.357 13.0079 20.357 13.0079 20.3283 13.0079C20.2995 13.0079 20.2995 13.0079 20.2707 13.0079C19.7817 13.0079 19.3789 12.8353 19.3789 12.634C19.3789 12.4038 19.7817 12.26 20.2707 12.26Z" fill="#0D0E10"/>
<path d="M29.1601 10.4769C28.9587 8.66447 24.9886 7.19727 20.3281 7.19727C15.6676 7.19727 11.6975 8.66447 11.4961 10.4769C11.4961 10.5344 11.4961 10.5632 11.4961 10.6207C11.4961 11.5126 12.3879 12.3756 14.0565 13.0085C14.0853 13.0085 14.0853 13.0085 14.114 13.0373C13.9414 12.8647 13.8551 12.6921 13.8551 12.4907C13.9127 11.5413 16.7895 10.7934 20.4144 10.7934C24.0105 10.7934 26.8873 11.5413 26.9737 12.4907C26.9737 12.6633 26.9161 12.8072 26.7723 12.951C28.3258 12.3181 29.1888 11.4838 29.1888 10.592C29.1601 10.5632 29.1601 10.5344 29.1601 10.4769Z" fill="#0D0E10"/>
</svg>
