<svg width="40" height="40" viewBox="0 0 40 40" fill="none" xmlns="http://www.w3.org/2000/svg">
<path d="M17.7402 11.9176V20.8989L26.4821 19.7014V10.8398L17.7402 11.9176Z" fill="#0D0E10"/>
<path d="M17.0214 11.7968V20.8978L12.8301 18.5028V9.52148L17.0214 11.7968Z" fill="#0D0E10"/>
<path d="M17.3807 11.1987L13.1895 8.92346L22.051 7.8457L26.0028 10.121L17.3807 11.1987Z" fill="#0D0E10"/>
<path d="M11.2734 23.1735V32.1548L20.0153 30.9573V22.0957L11.2734 23.1735Z" fill="#0D0E10"/>
<path d="M10.5546 23.0526V32.1537L6.36328 29.7587V20.7773L10.5546 23.0526Z" fill="#0D0E10"/>
<path d="M10.9139 22.4546L6.72266 20.1793L15.5842 19.1016L19.536 21.3768L10.9139 22.4546Z" fill="#0D0E10"/>
<path d="M29.5957 23.1735V32.1548L20.8539 30.9573V22.0957L29.5957 23.1735Z" fill="#0D0E10"/>
<path d="M30.3146 23.0526V32.1537L34.5059 29.7587V20.7773L30.3146 23.0526Z" fill="#0D0E10"/>
<path d="M29.9552 22.4546L34.1465 20.1793L25.2849 19.1016L21.3331 21.3768L29.9552 22.4546Z" fill="#0D0E10"/>
</svg>
