<svg width="40" height="40" viewBox="0 0 40 40" fill="none" xmlns="http://www.w3.org/2000/svg">
<path d="M14.6876 7.61878C14.6876 6.92637 15.2495 6.36446 15.9431 6.36328H24.0567C24.7139 6.36211 25.2605 6.86877 25.3087 7.52356C25.3581 8.17835 24.8914 8.76024 24.2425 8.85546V9.75476H21.3001C21.0415 9.75476 20.8299 9.96519 20.8299 10.225C20.8299 10.4848 21.0415 10.6952 21.3001 10.6952H24.2413L24.2425 11.5757H21.3001C21.0415 11.5757 20.8299 11.7861 20.8299 12.0459C20.8299 12.3057 21.0415 12.5161 21.3001 12.5161H24.2413V13.3966H21.3001C21.0415 13.3966 20.8299 13.607 20.8299 13.8668C20.8299 14.1266 21.0415 14.3371 21.3001 14.3371H24.2413V15.2176H21.3001C21.0415 15.2176 20.8299 15.428 20.8299 15.6878C20.8299 15.9476 21.0415 16.158 21.3001 16.158H24.2413V17.0385H21.3001C21.0415 17.0385 20.8299 17.2489 20.8299 17.5087C20.8299 17.7685 21.0415 17.9789 21.3001 17.9789H24.2413V18.8594H21.3001C21.0415 18.8594 20.8299 19.0698 20.8299 19.3296C20.8299 19.5894 21.0415 19.7999 21.3001 19.7999H24.2413V20.6803H15.7584V8.85549C15.1448 8.76497 14.6888 8.23947 14.6876 7.61878ZM30.1096 26.002L27.4164 25.098H27.4152C25.8435 24.5714 24.6703 23.2454 24.3399 21.6207H15.6596C15.3293 23.2453 14.1561 24.5713 12.5843 25.098L9.89112 26.002H9.88994C8.8625 26.3453 7.9691 27.0048 7.33547 27.8841C6.70302 28.7646 6.36211 29.8214 6.36328 30.9052V32.0149C6.36446 32.9095 7.08978 33.6348 7.98436 33.636H32.0151C32.9097 33.6348 33.635 32.9095 33.6361 32.0149V30.9052C33.6373 29.8213 33.2964 28.7645 32.6639 27.8841C32.0303 27.0048 31.137 26.3453 30.1096 26.002Z" fill="#0D0E10"/>
</svg>
