<svg width="40" height="40" viewBox="0 0 40 40" fill="none" xmlns="http://www.w3.org/2000/svg">
<path d="M25.4161 31.7555L25.3395 31.7012C23.7029 32.1681 22.0045 32.3805 20.3024 32.3336C18.6003 32.3805 16.9019 32.1681 15.2652 31.7012L15.1898 31.7703L14.5574 32.4028H14.5562C14.2054 32.7659 14.1041 33.3032 14.2993 33.7701C14.4932 34.2358 14.9465 34.5409 15.4517 34.547H25.1529C25.6643 34.547 26.1262 34.2395 26.3226 33.7664C26.5178 33.2933 26.4103 32.7486 26.0484 32.3879L25.4161 31.7555Z" fill="#0D0E10"/>
<path d="M20.3016 20.3164C15.9352 20.3164 12.3965 24.1776 12.3965 27.2347C12.3965 30.293 15.9352 31.3836 20.3016 31.3836C24.6681 31.3836 28.2068 30.2893 28.2068 27.2347C28.2068 24.1801 24.6681 20.3164 20.3016 20.3164Z" fill="#0D0E10"/>
<path d="M18.7168 12.4117V19.5225C19.7605 19.3162 20.8351 19.3162 21.8788 19.5225V12.4117C22.7175 12.4117 23.5216 12.0782 24.1145 11.4853C24.7074 10.8924 25.0409 10.0883 25.0409 9.2496V8.61719H15.5547V9.2496C15.5547 10.0883 15.8882 10.8924 16.4811 11.4853C17.074 12.0782 17.8781 12.4117 18.7168 12.4117Z" fill="#0D0E10"/>
<path d="M23.0372 7.66892C23.3151 7.18845 23.4608 6.64249 23.4608 6.08789H17.1367C17.1367 6.64249 17.2825 7.18845 17.5604 7.66892H23.0372Z" fill="#0D0E10"/>
<path d="M13.5338 22.4761L9.18595 19.8674C7.68274 18.9669 6.74648 17.3587 6.70446 15.6071C6.66246 13.8544 7.5209 12.2041 8.97966 11.2321L9.71582 10.7392H9.71705C10.5595 10.1785 11.5501 9.87953 12.5629 9.88203H14.6652C14.6306 9.67328 14.6108 9.46207 14.6084 9.24961V8.6172H12.553C11.2944 8.61473 10.0629 8.98776 9.01783 9.68933L8.28414 10.1982C6.47211 11.4099 5.40615 13.464 5.45681 15.643C5.50746 17.822 6.66851 19.8229 8.53365 20.9493L12.743 23.4789C12.9814 23.1269 13.246 22.791 13.5338 22.4761Z" fill="#0D0E10"/>
<path d="M33.5814 9.29402V9.24956V6.08749C33.5814 5.73792 33.2985 5.45508 32.949 5.45508C32.5994 5.45508 32.3166 5.73793 32.3166 6.08749V9.24956V9.29402C31.7595 9.4373 31.3704 9.9388 31.3679 10.5144V12.7278C31.3704 13.3034 31.7595 13.8049 32.3166 13.9482V13.9927V20.2314C32.298 20.8008 31.8991 21.2875 31.3445 21.4197C30.7887 21.5506 30.2143 21.2949 29.9413 20.7947C29.5769 20.0733 28.8889 19.5706 28.091 19.4409C27.2931 19.3124 26.4816 19.5718 25.9072 20.14L25.1797 20.8675V20.8663C25.5379 21.0985 25.8788 21.3554 26.2012 21.6358L26.8015 21.0355V21.0343C27.088 20.7539 27.4895 20.6242 27.886 20.6872C28.2812 20.749 28.6246 20.996 28.8099 21.3505C29.2212 22.1991 30.0797 22.7401 31.0233 22.745C31.2271 22.745 31.4297 22.7216 31.6274 22.6759C32.7748 22.4251 33.5901 21.4061 33.5814 20.2314V13.9927V13.9482C34.1385 13.8049 34.5276 13.3034 34.53 12.7278V10.5144C34.5276 9.93881 34.1385 9.43733 33.5814 9.29402Z" fill="#0D0E10"/>
</svg>
