<svg width="40" height="40" viewBox="0 0 40 40" fill="none" xmlns="http://www.w3.org/2000/svg">
<path d="M15.048 19.2962L17.1582 23.0772C17.3655 20.6175 18.2122 18.2546 19.6143 16.223C20.0259 15.6396 20.4841 15.0906 20.9845 14.5813C17.2972 6.87711 7.55062 6.36328 7.55062 6.36328C7.55062 6.36328 -1.31049 22.586 17.4103 29.101C17.1142 27.3944 17.0058 25.6605 17.0871 23.9304L16.764 23.3228L12.9862 23.2647C12.9216 23.263 12.8603 23.2359 12.8156 23.1893C12.7708 23.1428 12.7462 23.0804 12.7471 23.0158C12.7475 22.9844 12.7541 22.9534 12.7665 22.9246C12.7789 22.8957 12.7969 22.8696 12.8194 22.8477C12.8419 22.8258 12.8685 22.8085 12.8977 22.7969C12.9269 22.7853 12.958 22.7795 12.9894 22.7799L16.4699 22.8349L12.5629 15.8125L8.0806 15.5249C8.01632 15.5206 7.95638 15.491 7.91395 15.4425C7.87153 15.394 7.8501 15.3307 7.85439 15.2664C7.85868 15.2021 7.88832 15.1422 7.9368 15.0998C7.98529 15.0573 8.04864 15.0359 8.11292 15.0402L12.2817 15.3084L10.5269 12.1931C10.5007 12.1379 10.4963 12.0747 10.5147 12.0164C10.5331 11.9581 10.5728 11.9088 10.626 11.8786C10.6792 11.8483 10.7418 11.8393 10.8013 11.8532C10.8609 11.8672 10.9129 11.9032 10.9471 11.954L14.7701 18.7986L17.3554 14.0416C17.3706 14.0136 17.3913 13.9889 17.4161 13.9689C17.4409 13.9488 17.4695 13.9339 17.5001 13.9249C17.5307 13.9159 17.5628 13.913 17.5945 13.9164C17.6262 13.9198 17.657 13.9294 17.685 13.9447C17.713 13.9599 17.7377 13.9806 17.7577 14.0054C17.7778 14.0303 17.7927 14.0588 17.8017 14.0894C17.8107 14.12 17.8136 14.1521 17.8102 14.1838C17.8068 14.2155 17.7972 14.2463 17.7819 14.2743L15.048 19.2962ZM10.9697 22.7605H11.5578C11.6224 22.7622 11.6837 22.7893 11.7285 22.8359C11.7732 22.8824 11.7978 22.9448 11.797 23.0094C11.7953 23.0725 11.769 23.1325 11.7237 23.1766C11.6785 23.2207 11.6178 23.2453 11.5546 23.2453H10.9664C10.9019 23.2436 10.8406 23.2165 10.7958 23.1699C10.751 23.1234 10.7264 23.061 10.7273 22.9964C10.7273 22.9649 10.7336 22.9337 10.7459 22.9046C10.7581 22.8756 10.7761 22.8493 10.7987 22.8273C10.8213 22.8053 10.848 22.7881 10.8774 22.7766C10.9068 22.7651 10.9382 22.7597 10.9697 22.7605ZM10.1521 11.0265C10.0964 11.055 10.032 11.0611 9.97192 11.0437C9.91188 11.0263 9.86073 10.9866 9.82891 10.9328L9.46697 10.2865C9.43728 10.2305 9.43073 10.165 9.44871 10.1042C9.46669 10.0435 9.50777 9.99212 9.56315 9.96126C9.61853 9.9304 9.68379 9.92247 9.74495 9.93916C9.80611 9.95586 9.85829 9.99585 9.89031 10.0506L10.2523 10.6969C10.2679 10.725 10.2778 10.7559 10.2812 10.7879C10.2847 10.8199 10.2816 10.8522 10.2723 10.883C10.2629 10.9138 10.2474 10.9423 10.2268 10.967C10.2061 10.9917 10.1807 11.0119 10.1521 11.0265Z" fill="#0D0E10"/>
<path d="M18.9186 33.3837L22.7223 26.7491L19.8138 21.7434C19.784 21.6886 19.7764 21.6245 19.7927 21.5643C19.8089 21.5041 19.8477 21.4525 19.9011 21.4202C19.9564 21.3915 20.0205 21.3848 20.0805 21.4016C20.1405 21.4184 20.1919 21.4574 20.2242 21.5107L22.984 26.2741L26.9912 19.2873L24.9489 15.2866C24.9193 15.2292 24.9137 15.1623 24.9334 15.1008C24.9531 15.0393 24.9965 14.9881 25.0539 14.9586C25.1113 14.929 25.1781 14.9235 25.2396 14.9431C25.3012 14.9628 25.3523 15.0062 25.3819 15.0636L27.2982 18.7767L30.1647 13.7806C30.1968 13.7249 30.2498 13.6843 30.3119 13.6676C30.374 13.6509 30.4402 13.6596 30.4959 13.6918C30.5516 13.7239 30.5923 13.7769 30.609 13.839C30.6256 13.9011 30.6169 13.9673 30.5848 14.023L25.5952 22.7193L28.2096 22.6191C28.2419 22.6169 28.2743 22.6214 28.3048 22.6322C28.3353 22.6431 28.3633 22.6601 28.3869 22.6822C28.4106 22.7044 28.4294 22.7311 28.4423 22.7609C28.4551 22.7906 28.4617 22.8226 28.4616 22.855C28.4634 22.9188 28.4399 22.9806 28.3964 23.0272C28.3528 23.0738 28.2927 23.1013 28.2289 23.1039L25.3205 23.2073L24.7 24.2866L31.5155 24.0249C31.5796 24.0231 31.6418 24.0464 31.6889 24.0899C31.736 24.1334 31.7642 24.1936 31.7676 24.2576C31.7689 24.2892 31.7639 24.3208 31.7528 24.3506C31.7418 24.3803 31.725 24.4075 31.7033 24.4307C31.6817 24.4538 31.6556 24.4724 31.6267 24.4854C31.5978 24.4984 31.5666 24.5056 31.5349 24.5064L24.4253 24.7811L21.5815 29.7352L25.2688 28.9466C25.3317 28.9341 25.397 28.9467 25.4508 28.9818C25.5045 29.0168 25.5424 29.0715 25.5564 29.1341C25.563 29.1653 25.5634 29.1975 25.5576 29.2288C25.5518 29.2602 25.5398 29.2901 25.5224 29.3168C25.505 29.3435 25.4825 29.3665 25.4561 29.3845C25.4298 29.4025 25.4002 29.4152 25.369 29.4217L21.2389 30.3104L19.3484 33.6228C42.1185 28.1517 32.5496 10.1289 32.5496 10.1289C32.5496 10.1289 12.1516 10.9627 18.9186 33.3837ZM30.3844 23.0263L29.7381 23.0522C29.6755 23.0522 29.6153 23.028 29.5701 22.9846C29.5249 22.9413 29.4982 22.8821 29.4957 22.8195C29.494 22.7554 29.5173 22.6932 29.5608 22.6461C29.6043 22.599 29.6644 22.5708 29.7284 22.5674L30.3747 22.5416C30.439 22.539 30.5017 22.5621 30.549 22.6057C30.5962 22.6493 30.6242 22.71 30.6268 22.7742C30.6294 22.8385 30.6063 22.9012 30.5627 22.9485C30.519 22.9957 30.4584 23.0237 30.3941 23.0263H30.3844Z" fill="#0D0E10"/>
</svg>
