<svg width="40" height="40" viewBox="0 0 40 40" fill="none" xmlns="http://www.w3.org/2000/svg">
<path d="M13.8326 21.8945H18.4653C18.5617 21.8945 18.6542 21.8562 18.7224 21.788C18.7906 21.7198 18.8289 21.6273 18.8289 21.5308V18.389C18.8289 18.2926 18.7906 18.2001 18.7224 18.1319C18.6542 18.0637 18.5617 18.0254 18.4653 18.0254H13.8326C13.7361 18.0254 13.6436 18.0637 13.5754 18.1319C13.5072 18.2001 13.4689 18.2926 13.4689 18.389V21.5199C13.4675 21.5686 13.4758 21.6171 13.4934 21.6624C13.511 21.7078 13.5376 21.7492 13.5715 21.7841C13.6054 21.8191 13.646 21.8468 13.6908 21.8658C13.7357 21.8847 13.7839 21.8945 13.8326 21.8945Z" fill="#0D0E10"/>
<path d="M11.8184 11.274V15.6376H18.8475V11.274C18.8475 11.1775 18.8091 11.085 18.7409 11.0168C18.6727 10.9486 18.5803 10.9103 18.4838 10.9103H12.1929C12.1442 10.9089 12.0958 10.9172 12.0504 10.9348C12.005 10.9524 11.9636 10.979 11.9287 11.0129C11.8938 11.0468 11.866 11.0874 11.847 11.1322C11.8281 11.1771 11.8183 11.2253 11.8184 11.274ZM17.7384 14.3612C17.7384 14.2648 17.7767 14.1723 17.8449 14.1041C17.9131 14.0359 18.0056 13.9976 18.102 13.9976C18.1984 13.9976 18.2909 14.0359 18.3591 14.1041C18.4273 14.1723 18.4656 14.2648 18.4656 14.3612V14.8449C18.4656 14.9413 18.4273 15.0338 18.3591 15.102C18.2909 15.1702 18.1984 15.2085 18.102 15.2085C18.0056 15.2085 17.9131 15.1702 17.8449 15.102C17.7767 15.0338 17.7384 14.9413 17.7384 14.8449V14.3612ZM16.6256 14.3612C16.6256 14.2624 16.6649 14.1676 16.7348 14.0977C16.8047 14.0278 16.8995 13.9885 16.9984 13.9885C17.0972 13.9885 17.192 14.0278 17.2619 14.0977C17.3318 14.1676 17.3711 14.2624 17.3711 14.3612V14.8449C17.3711 14.9437 17.3318 15.0385 17.2619 15.1084C17.192 15.1783 17.0972 15.2176 16.9984 15.2176C16.8995 15.2176 16.8047 15.1783 16.7348 15.1084C16.6649 15.0385 16.6256 14.9437 16.6256 14.8449V14.3612ZM15.5347 14.3612C15.5347 14.2648 15.573 14.1723 15.6412 14.1041C15.7094 14.0359 15.8019 13.9976 15.8984 13.9976C15.9948 13.9976 16.0873 14.0359 16.1555 14.1041C16.2237 14.1723 16.262 14.2648 16.262 14.3612V14.8449C16.262 14.9413 16.2237 15.0338 16.1555 15.102C16.0873 15.1702 15.9948 15.2085 15.8984 15.2085C15.8019 15.2085 15.7094 15.1702 15.6412 15.102C15.573 15.0338 15.5347 14.9413 15.5347 14.8449V14.3612ZM14.422 14.3612C14.422 14.2624 14.4613 14.1676 14.5312 14.0977C14.6011 14.0278 14.6959 13.9885 14.7947 13.9885C14.8936 13.9885 14.9884 14.0278 15.0583 14.0977C15.1282 14.1676 15.1675 14.2624 15.1675 14.3612V14.8449C15.1675 14.9437 15.1282 15.0385 15.0583 15.1084C14.9884 15.1783 14.8936 15.2176 14.7947 15.2176C14.6959 15.2176 14.6011 15.1783 14.5312 15.1084C14.4613 15.0385 14.422 14.9437 14.422 14.8449V14.3612ZM13.3093 14.3612C13.3093 14.2624 13.3485 14.1676 13.4184 14.0977C13.4883 14.0278 13.5831 13.9885 13.682 13.9885C13.7808 13.9885 13.8757 14.0278 13.9456 14.0977C14.0155 14.1676 14.0547 14.2624 14.0547 14.3612V14.8449C14.0547 14.9437 14.0155 15.0385 13.9456 15.1084C13.8757 15.1783 13.7808 15.2176 13.682 15.2176C13.5831 15.2176 13.4883 15.1783 13.4184 15.1084C13.3485 15.0385 13.3093 14.9437 13.3093 14.8449V14.3612ZM12.582 13.9976C12.6784 13.9976 12.7709 14.0359 12.8391 14.1041C12.9073 14.1723 12.9456 14.2648 12.9456 14.3612V14.8449C12.9456 14.9413 12.9073 15.0338 12.8391 15.102C12.7709 15.1702 12.6784 15.2085 12.582 15.2085C12.4856 15.2085 12.3931 15.1702 12.3249 15.102C12.2567 15.0338 12.2184 14.9413 12.2184 14.8449V14.3758C12.2163 14.2823 12.2502 14.1917 12.3132 14.1226C12.3762 14.0536 12.4633 14.0114 12.5565 14.0049L12.582 13.9976Z" fill="#0D0E10"/>
<path d="M11.8184 33.4251C11.8193 33.7218 11.9376 34.0062 12.1475 34.216C12.3573 34.4258 12.6416 34.5441 12.9384 34.5451H20.4802V16.3633H11.8184V33.4251ZM12.7129 18.3887C12.7139 18.092 12.8322 17.8077 13.042 17.5978C13.2518 17.388 13.5362 17.2697 13.8329 17.2687H18.4656C18.7624 17.2697 19.0467 17.388 19.2565 17.5978C19.4664 17.8077 19.5847 18.092 19.5856 18.3887V21.5196C19.5856 21.8167 19.4676 22.1016 19.2576 22.3116C19.0476 22.5216 18.7627 22.6396 18.4656 22.6396H13.8329C13.5359 22.6396 13.251 22.5216 13.0409 22.3116C12.8309 22.1016 12.7129 21.8167 12.7129 21.5196V18.3887Z" fill="#0D0E10"/>
<path d="M26.0593 16.3633H21.2266V34.5451H26.0593C26.356 34.5441 26.6404 34.4258 26.8502 34.216C27.06 34.0062 27.1783 33.7218 27.1793 33.4251V17.4942C27.1802 17.3463 27.152 17.1997 27.0962 17.0628C27.0404 16.9259 26.9581 16.8013 26.8541 16.6962C26.75 16.5912 26.6262 16.5077 26.4899 16.4505C26.3535 16.3934 26.2072 16.3638 26.0593 16.3633Z" fill="#0D0E10"/>
<path d="M28.3638 19.5391H27.9238V22.0082H28.3638V19.5391Z" fill="#0D0E10"/>
<path d="M16.8189 5.45508H13.848C13.7516 5.45508 13.6591 5.49339 13.5909 5.56158C13.5227 5.62978 13.4844 5.72227 13.4844 5.81871V10.1824H17.1826V5.81871C17.1826 5.72227 17.1442 5.62978 17.0761 5.56158C17.0079 5.49339 16.9154 5.45508 16.8189 5.45508Z" fill="#0D0E10"/>
</svg>
