<svg width="44" height="44" viewBox="0 0 44 44" fill="none" xmlns="http://www.w3.org/2000/svg">
<path d="M41.25 22.1176C41.25 16.981 39.2228 12.0548 35.6144 8.42264C32.006 4.79052 27.112 2.75001 22.0089 2.75001C17.1638 2.7455 12.4954 4.58105 8.93621 7.88999C5.37699 11.1989 3.18898 15.7377 2.80923 20.5996C2.42948 25.4615 3.88596 30.2886 6.88772 34.1168C9.88949 37.945 14.2156 40.4923 19.0018 41.25V27.7148H14.1201V22.1176H19.0045V17.8512C19.0045 12.9982 21.877 10.3144 26.2722 10.3144C28.3777 10.3144 30.5794 10.6935 30.5794 10.6935V15.4607H28.1523C25.7609 15.4607 25.0188 16.9547 25.0188 18.4848V22.1176H30.354L29.5019 27.7148H25.016V41.25C29.5418 40.5286 33.6634 38.2053 36.6393 34.6981C39.6152 31.1909 41.2501 26.7299 41.25 22.1176Z" fill="#1877F2"/>
<path d="M29.4937 27.5631L30.3462 21.9999H25.0084V18.3891C25.0084 16.8684 25.7509 15.3834 28.1434 15.3834H30.5717V10.6424C30.5717 10.6424 28.3689 10.2656 26.2624 10.2656C21.8624 10.2656 18.9914 12.9331 18.9914 17.7566V21.9999H14.1074V27.5631H18.9942V41.0161C20.9876 41.3298 23.0178 41.3298 25.0112 41.0161V27.5631H29.4937Z" fill="white"/>
</svg>
