<svg width="44" height="44" viewBox="0 0 44 44" fill="none" xmlns="http://www.w3.org/2000/svg">
<path d="M22 41.25C32.6315 41.25 41.25 32.6315 41.25 22C41.25 11.3685 32.6315 2.75 22 2.75C11.3685 2.75 2.75 11.3685 2.75 22C2.75 32.6315 11.3685 41.25 22 41.25Z" fill="white"/>
<path d="M22 41.25C32.6315 41.25 41.25 32.6315 41.25 22C41.25 11.3685 32.6315 2.75 22 2.75C11.3685 2.75 2.75 11.3685 2.75 22C2.75 32.6315 11.3685 41.25 22 41.25Z" fill="url(#paint0_radial_4001_64534)"/>
<path d="M22 41.25C32.6315 41.25 41.25 32.6315 41.25 22C41.25 11.3685 32.6315 2.75 22 2.75C11.3685 2.75 2.75 11.3685 2.75 22C2.75 32.6315 11.3685 41.25 22 41.25Z" fill="url(#paint1_radial_4001_64534)"/>
<path d="M22 41.25C32.6315 41.25 41.25 32.6315 41.25 22C41.25 11.3685 32.6315 2.75 22 2.75C11.3685 2.75 2.75 11.3685 2.75 22C2.75 32.6315 11.3685 41.25 22 41.25Z" fill="url(#paint2_radial_4001_64534)"/>
<path d="M22 12.982C24.9371 12.982 25.2851 12.9932 26.4449 13.0461C27.5174 13.095 28.0999 13.2742 28.4875 13.4249C29.0009 13.6244 29.3673 13.8627 29.7523 14.2477C30.1373 14.6327 30.3756 14.9991 30.5751 15.5125C30.7257 15.9001 30.905 16.4826 30.9539 17.555C31.0068 18.7149 31.018 19.0628 31.018 21.9999C31.018 24.9371 31.0068 25.285 30.9539 26.4449C30.905 27.5174 30.7257 28.0998 30.5751 28.4874C30.3756 29.0009 30.1373 29.3673 29.7523 29.7522C29.3673 30.1372 29.0009 30.3755 28.4875 30.575C28.0999 30.7257 27.5174 30.9049 26.4449 30.9538C25.2852 31.0067 24.9374 31.018 22 31.018C19.0626 31.018 18.7148 31.0067 17.5551 30.9538C16.4826 30.9049 15.9001 30.7257 15.5125 30.575C14.9991 30.3755 14.6327 30.1372 14.2478 29.7522C13.8628 29.3673 13.6244 29.0009 13.4249 28.4874C13.2742 28.0998 13.095 27.5174 13.0461 26.4449C12.9932 25.285 12.982 24.9371 12.982 21.9999C12.982 19.0628 12.9932 18.7149 13.0461 17.555C13.095 16.4826 13.2742 15.9001 13.4249 15.5125C13.6244 14.9991 13.8628 14.6327 14.2478 14.2478C14.6327 13.8628 14.9991 13.6244 15.5125 13.4249C15.9001 13.2742 16.4826 13.095 17.5551 13.0461C18.7149 12.9932 19.0629 12.982 22 12.982ZM22 11C19.0126 11 18.6379 11.0126 17.4647 11.0662C16.2939 11.1196 15.4942 11.3055 14.7945 11.5775C14.0712 11.8586 13.4578 12.2347 12.8463 12.8463C12.2347 13.4578 11.8586 14.0712 11.5775 14.7945C11.3055 15.4942 11.1196 16.2938 11.0662 17.4647C11.0126 18.6379 11 19.0126 11 21.9999C11 24.9874 11.0126 25.362 11.0662 26.5352C11.1196 27.7061 11.3055 28.5057 11.5775 29.2054C11.8586 29.9287 12.2347 30.5421 12.8463 31.1537C13.4578 31.7652 14.0712 32.1414 14.7945 32.4224C15.4942 32.6944 16.2939 32.8803 17.4647 32.9337C18.6379 32.9873 19.0126 32.9999 22 32.9999C24.9874 32.9999 25.3621 32.9873 26.5353 32.9337C27.7061 32.8803 28.5058 32.6944 29.2055 32.4224C29.9288 32.1414 30.5422 31.7652 31.1537 31.1537C31.7653 30.5421 32.1414 29.9287 32.4225 29.2054C32.6945 28.5057 32.8804 27.7061 32.9338 26.5352C32.9873 25.362 33 24.9874 33 21.9999C33 19.0126 32.9873 18.6379 32.9338 17.4647C32.8804 16.2938 32.6945 15.4942 32.4225 14.7945C32.1414 14.0712 31.7653 13.4578 31.1537 12.8463C30.5422 12.2347 29.9288 11.8586 29.2055 11.5775C28.5058 11.3055 27.7061 11.1196 26.5353 11.0662C25.3621 11.0126 24.9874 11 22 11Z" fill="white"/>
<path d="M22.006 16.3555C18.8863 16.3555 16.3574 18.8844 16.3574 22.0041C16.3574 25.1238 18.8863 27.6527 22.006 27.6527C25.1257 27.6527 27.6547 25.1238 27.6547 22.0041C27.6547 18.8844 25.1257 16.3555 22.006 16.3555ZM22.006 25.6707C19.981 25.6707 18.3393 24.0291 18.3393 22.0041C18.3393 19.9791 19.981 18.3374 22.006 18.3374C24.0311 18.3374 25.6727 19.9791 25.6727 22.0041C25.6727 24.0291 24.0311 25.6707 22.006 25.6707Z" fill="white"/>
<path d="M29.1966 16.1287C29.1966 16.8576 28.6057 17.4487 27.8766 17.4487C27.1476 17.4487 26.5566 16.8576 26.5566 16.1287C26.5566 15.3997 27.1476 14.8086 27.8766 14.8086C28.6057 14.8086 29.1966 15.3997 29.1966 16.1287Z" fill="white"/>
<defs>
<radialGradient id="paint0_radial_4001_64534" cx="0" cy="0" r="1" gradientUnits="userSpaceOnUse" gradientTransform="translate(16.5 31.625) rotate(-55.3758) scale(35.0895)">
<stop stop-color="#B13589"/>
<stop offset="0.79309" stop-color="#C62F94"/>
<stop offset="1" stop-color="#8A3AC8"/>
</radialGradient>
<radialGradient id="paint1_radial_4001_64534" cx="0" cy="0" r="1" gradientUnits="userSpaceOnUse" gradientTransform="translate(0.687501 4.125) rotate(-8.1301) scale(53.475 11.4377)">
<stop offset="0.156701" stop-color="#406ADC"/>
<stop offset="0.467799" stop-color="#6A45BE"/>
<stop offset="1" stop-color="#6A45BE" stop-opacity="0"/>
</radialGradient>
<radialGradient id="paint2_radial_4001_64534" cx="0" cy="0" r="1" gradientUnits="userSpaceOnUse" gradientTransform="translate(15.125 42.625) rotate(-65.1363) scale(31.067)">
<stop stop-color="#E0E8B7"/>
<stop offset="0.444662" stop-color="#FB8A2E"/>
<stop offset="0.71474" stop-color="#E2425C"/>
<stop offset="1" stop-color="#E2425C" stop-opacity="0"/>
</radialGradient>
</defs>
</svg>
