<svg width="44" height="44" viewBox="0 0 44 44" fill="none" xmlns="http://www.w3.org/2000/svg">
<path d="M18.2489 18.4956V17.2096C17.8025 17.139 17.3516 17.1002 16.8997 17.0938C12.5246 17.0844 8.65124 19.9196 7.3374 24.0928C6.02356 28.2659 7.5744 32.8087 11.1655 35.3073C9.84866 33.898 8.96784 32.1376 8.62941 30.2386C8.29098 28.3397 8.5094 26.3834 9.25831 24.6059C10.0072 22.8284 11.2546 21.3056 12.8499 20.2214C14.4452 19.1371 16.3202 18.5378 18.2486 18.4958L18.2489 18.4956Z" fill="#25F4EE"/>
<path d="M18.4919 33.0628C20.9381 33.0595 22.9488 31.1324 23.0559 28.6886V6.88083H27.0399C26.9586 6.42513 26.9198 5.96287 26.924 5.5L21.4747 5.5V27.2868C21.3841 29.743 19.3686 31.6886 16.9107 31.6925C16.1763 31.6863 15.4538 31.5057 14.8027 31.1655C15.2247 31.7501 15.7788 32.2267 16.4199 32.5564C17.061 32.8861 17.771 33.0596 18.4919 33.0628ZM34.4813 14.28V13.0678C33.0151 13.0684 31.5813 12.6358 30.3602 11.8242C31.4307 13.0687 32.8773 13.9308 34.4813 14.28Z" fill="#25F4EE"/>
<path d="M30.3607 11.8251C29.1577 10.4552 28.4945 8.69424 28.4951 6.87109H27.0404C27.2283 7.87909 27.6196 8.83823 28.1905 9.68997C28.7613 10.5417 29.4998 11.2682 30.3607 11.8251ZM16.9008 22.5445C15.8806 22.5497 14.8914 22.8958 14.0904 23.5278C13.2895 24.1598 12.7228 25.0414 12.4805 26.0324C12.2382 27.0235 12.3341 28.0671 12.7531 28.9973C13.172 29.9276 13.8899 30.6911 14.7926 31.1665C14.2991 30.485 14.0035 29.6803 13.9386 28.8414C13.8737 28.0025 14.0419 27.162 14.4248 26.4127C14.8076 25.6634 15.3901 25.0345 16.108 24.5955C16.8258 24.1566 17.6511 23.9246 18.4925 23.9252C18.9499 23.9312 19.4042 24.0024 19.8415 24.1367V18.5919C19.3949 18.525 18.9441 18.4898 18.4925 18.4866H18.2499V22.7026C17.8103 22.5847 17.3558 22.5314 16.9008 22.5445Z" fill="#FE2C55"/>
<path d="M34.4813 14.2812V18.4974C31.7669 18.4921 29.1229 17.6329 26.924 16.0415V27.1193C26.9123 32.647 22.4279 37.1221 16.9002 37.1221C14.8472 37.1258 12.8437 36.4923 11.166 35.3091C12.5341 36.7806 14.3136 37.806 16.2727 38.2517C18.2318 38.6975 20.2798 38.5429 22.1498 37.8081C24.0198 37.0733 25.6252 35.7925 26.7569 34.1323C27.8886 32.4721 28.494 30.5096 28.4945 28.5005V17.454C30.7008 19.0349 33.348 19.8829 36.0623 19.8783V14.4495C35.5309 14.4479 35.0011 14.3915 34.4813 14.2812Z" fill="#FE2C55"/>
<path d="M26.9241 27.119V16.0411C29.1297 17.6235 31.7774 18.4717 34.4919 18.4654V14.2494C32.8883 13.9107 31.4382 13.0598 30.3602 11.8251C29.4993 11.2682 28.7609 10.5417 28.19 9.68997C27.6192 8.83823 27.2278 7.87909 27.04 6.87109H23.056V28.6898C23.0172 29.6395 22.6835 30.5536 22.1013 31.305C21.5191 32.0563 20.7173 32.6077 19.8074 32.8824C18.8974 33.1571 17.9245 33.1415 17.0238 32.8378C16.1231 32.5341 15.3394 31.9574 14.7815 31.1878C13.8786 30.7125 13.1606 29.9489 12.7415 29.0186C12.3225 28.0883 12.2265 27.0446 12.4688 26.0535C12.7112 25.0623 13.2779 24.1807 14.079 23.5487C14.88 22.9167 15.8694 22.5706 16.8897 22.5655C17.3473 22.5696 17.8018 22.6407 18.2388 22.7764V18.5602C16.3001 18.5931 14.4128 19.1894 12.807 20.2763C11.2013 21.3633 9.94645 22.894 9.19559 24.6817C8.44473 26.4695 8.23026 28.4371 8.57832 30.3447C8.92637 32.2522 9.82193 34.0173 11.1558 35.4247C12.85 36.5689 14.8563 37.1616 16.9003 37.1217C22.428 37.1217 26.9124 32.6467 26.9241 27.119Z" fill="white"/>
</svg>
