<svg width="44" height="44" viewBox="0 0 44 44" fill="none" xmlns="http://www.w3.org/2000/svg">
<g clip-path="url(#clip0_4001_63660)">
<rect x="6.875" y="8.25" width="28.875" height="28.875" fill="white"/>
<path fill-rule="evenodd" clip-rule="evenodd" d="M21.9936 0C9.86541 0 0 9.86817 0 21.9998C0 26.8111 1.55159 31.273 4.18917 34.8947L1.44796 43.0685L9.90407 40.3659C13.382 42.6681 17.5326 44 22.0064 44C34.1346 44 44 34.1315 44 22.0002C44 9.86856 34.1346 0.000363668 22.0064 0.000363668L21.9936 0ZM15.8518 11.1749C15.4252 10.1532 15.1019 10.1146 14.4556 10.0883C14.2356 10.0755 13.9904 10.0627 13.7185 10.0627C12.8777 10.0627 11.9987 10.3084 11.4685 10.8515C10.8222 11.5111 9.21876 13.05 9.21876 16.2059C9.21876 19.3619 11.5203 22.4141 11.8305 22.8412C12.1538 23.2675 16.3174 29.8378 22.7822 32.5155C27.8377 34.6107 29.3378 34.4165 30.4884 34.1709C32.1692 33.8088 34.2769 32.5666 34.8072 31.0668C35.3374 29.5662 35.3373 28.2857 35.1819 28.0142C35.0268 27.7426 34.5999 27.5878 33.9536 27.2641C33.3073 26.9407 30.1651 25.3886 29.5703 25.1816C28.9882 24.9619 28.4325 25.0396 27.9931 25.6605C27.3724 26.5271 26.7649 27.4068 26.2733 27.9368C25.8854 28.3507 25.2515 28.4025 24.7217 28.1824C24.0105 27.8853 22.0195 27.1863 19.5626 25.0006C17.6618 23.3066 16.3689 21.1986 15.9941 20.5649C15.619 19.9185 15.9554 19.5429 16.2524 19.1939C16.5757 18.7928 16.886 18.5084 17.2093 18.1332C17.5326 17.7583 17.7136 17.5641 17.9205 17.1243C18.1405 16.6976 17.985 16.2578 17.83 15.9344C17.6749 15.611 16.382 12.455 15.8518 11.1749Z" fill="#67C15E"/>
</g>
<defs>
<clipPath id="clip0_4001_63660">
<rect width="44" height="44" fill="white"/>
</clipPath>
</defs>
</svg>
