<svg width="302" height="210" viewBox="0 0 302 210" fill="none" xmlns="http://www.w3.org/2000/svg">
<path d="M-14.1572 51.4863C-13.1989 48.0988 -15.1655 44.5763 -18.5496 43.619L-6.21094 0C21.238 7.76456 37.1887 36.3342 29.416 63.8119L3.7748 154.458C2.81658 157.845 4.78302 161.368 8.16708 162.325C11.5513 163.282 15.0715 161.312 16.0298 157.924L41.6709 67.2785C49.4437 39.8008 77.9965 23.82 105.446 31.5847C132.894 39.3491 148.845 67.9186 141.072 95.3964L115.431 186.042C114.473 189.429 116.44 192.952 119.823 193.909C123.207 194.866 126.728 192.896 127.686 189.509L153.327 98.8631C161.1 71.3853 189.653 55.4045 217.101 63.169C244.551 70.9338 260.501 99.5033 252.729 126.981L227.088 217.627C226.129 221.014 228.095 224.536 231.48 225.494C234.864 226.451 238.385 224.481 239.343 221.093L264.984 130.448C272.757 102.97 301.309 86.9892 328.758 94.7536L316.419 138.373C313.036 137.415 309.515 139.386 308.557 142.773L282.915 233.419C275.143 260.896 246.59 276.877 219.141 269.113C191.692 261.348 175.741 232.778 183.514 205.301L209.155 114.655C210.113 111.268 208.148 107.745 204.763 106.788C201.379 105.831 197.858 107.801 196.9 111.189L171.259 201.834C163.486 229.312 134.933 245.293 107.485 237.528C80.0362 229.764 64.0858 201.194 71.8585 173.717L97.4997 83.071C98.4579 79.6835 96.4908 76.1608 93.1071 75.2037C89.7222 74.2461 86.2026 76.2168 85.2443 79.6043L59.6032 170.25C51.8305 197.727 23.2774 213.708 -4.17155 205.944C-31.6205 198.179 -47.571 169.609 -39.7983 142.132L-14.1572 51.4863Z" fill="#C6063F"/>
</svg>
